<mxfile host="app.diagrams.net" agent="Mozilla/5.0 (Windows NT 10.0; Win64; x64) AppleWebKit/537.36 (KHTML, like Gecko) Chrome/141.0.0.0 Safari/537.36" version="28.2.5">
  <diagram name="Página-1" id="6CAupsV__flEeniP3BK9">
    <mxGraphModel dx="2451" dy="890" grid="1" gridSize="10" guides="1" tooltips="1" connect="1" arrows="1" fold="1" page="1" pageScale="1" pageWidth="1100" pageHeight="850" math="0" shadow="0">
      <root>
        <mxCell id="0" />
        <mxCell id="1" parent="0" />
        <mxCell id="FbaqpglJVMi_n5HGXFX3-2" value="Diagrama &lt;i&gt;Activity on Node&lt;/i&gt; (AoN) del Sistema SPCP - Fases 1 a 5" style="text;html=1;align=left;verticalAlign=middle;resizable=0;points=[];autosize=1;strokeColor=none;fillColor=none;" parent="1" vertex="1">
          <mxGeometry x="-1040" y="40" width="380" height="30" as="geometry" />
        </mxCell>
        <mxCell id="FbaqpglJVMi_n5HGXFX3-18" value="" style="edgeStyle=orthogonalEdgeStyle;rounded=0;orthogonalLoop=1;jettySize=auto;html=1;" parent="1" source="FbaqpglJVMi_n5HGXFX3-3" target="FbaqpglJVMi_n5HGXFX3-4" edge="1">
          <mxGeometry relative="1" as="geometry" />
        </mxCell>
        <mxCell id="FbaqpglJVMi_n5HGXFX3-3" value="Inicio&lt;div&gt;03/11/2025&lt;/div&gt;" style="strokeWidth=2;html=1;shape=mxgraph.flowchart.start_2;whiteSpace=wrap;fillColor=#f5f5f5;fontColor=#333333;strokeColor=#666666;" parent="1" vertex="1">
          <mxGeometry x="-1040" y="80" width="80" height="80" as="geometry" />
        </mxCell>
        <mxCell id="FbaqpglJVMi_n5HGXFX3-4" value="1.1&lt;div&gt;Preparación Inicial&lt;div&gt;t=2 sem&lt;/div&gt;&lt;/div&gt;" style="rounded=1;whiteSpace=wrap;html=1;absoluteArcSize=1;arcSize=14;strokeWidth=2;align=center;verticalAlign=top;fillColor=#d0cee2;strokeColor=#56517e;" parent="1" vertex="1">
          <mxGeometry x="-920" y="80" width="120" height="80" as="geometry" />
        </mxCell>
        <mxCell id="FbaqpglJVMi_n5HGXFX3-16" value="" style="edgeStyle=orthogonalEdgeStyle;rounded=0;orthogonalLoop=1;jettySize=auto;html=1;" parent="1" target="FbaqpglJVMi_n5HGXFX3-6" edge="1">
          <mxGeometry relative="1" as="geometry">
            <mxPoint x="-630" y="270" as="sourcePoint" />
          </mxGeometry>
        </mxCell>
        <mxCell id="FbaqpglJVMi_n5HGXFX3-17" value="" style="edgeStyle=orthogonalEdgeStyle;rounded=0;orthogonalLoop=1;jettySize=auto;html=1;" parent="1" target="FbaqpglJVMi_n5HGXFX3-6" edge="1">
          <mxGeometry relative="1" as="geometry">
            <mxPoint x="-630" y="270" as="sourcePoint" />
          </mxGeometry>
        </mxCell>
        <mxCell id="FbaqpglJVMi_n5HGXFX3-8" value="QG1" style="strokeWidth=2;html=1;shape=mxgraph.flowchart.decision;whiteSpace=wrap;fillColor=#ffff88;strokeColor=#36393d;" parent="1" vertex="1">
          <mxGeometry x="-880" y="183" width="40" height="40" as="geometry" />
        </mxCell>
        <mxCell id="FbaqpglJVMi_n5HGXFX3-12" value="" style="endArrow=classic;html=1;rounded=0;entryX=0;entryY=0.5;entryDx=0;entryDy=0;exitX=0.5;exitY=1;exitDx=0;exitDy=0;exitPerimeter=0;fillColor=#d80073;strokeColor=#A50040;" parent="1" edge="1" source="FbaqpglJVMi_n5HGXFX3-8">
          <mxGeometry width="50" height="50" relative="1" as="geometry">
            <mxPoint x="-990" y="330" as="sourcePoint" />
            <mxPoint x="-800" y="240" as="targetPoint" />
            <Array as="points">
              <mxPoint x="-860" y="240" />
            </Array>
          </mxGeometry>
        </mxCell>
        <mxCell id="TKUN_kZqoWUepgemo68u-2" value="1.2&lt;div&gt;Diseño&lt;div&gt;t=4 sem&lt;/div&gt;&lt;/div&gt;" style="rounded=1;whiteSpace=wrap;html=1;absoluteArcSize=1;arcSize=14;strokeWidth=2;align=center;verticalAlign=top;fillColor=#cdeb8b;strokeColor=#36393d;" vertex="1" parent="1">
          <mxGeometry x="-799" y="201" width="120" height="80" as="geometry" />
        </mxCell>
        <mxCell id="TKUN_kZqoWUepgemo68u-3" value="1.3&lt;div&gt;Construcción y pruebas&lt;div&gt;t=11 sem&lt;/div&gt;&lt;/div&gt;" style="rounded=1;whiteSpace=wrap;html=1;absoluteArcSize=1;arcSize=14;strokeWidth=2;align=center;verticalAlign=top;fillColor=#fff2cc;strokeColor=#d6b656;" vertex="1" parent="1">
          <mxGeometry x="-679" y="321" width="120" height="80" as="geometry" />
        </mxCell>
        <mxCell id="TKUN_kZqoWUepgemo68u-4" value="1.4&lt;div&gt;Preparación Final&lt;div&gt;t=4 sem&lt;/div&gt;&lt;/div&gt;" style="rounded=1;whiteSpace=wrap;html=1;absoluteArcSize=1;arcSize=14;strokeWidth=2;align=center;verticalAlign=top;fillColor=#e1d5e7;strokeColor=#9673a6;" vertex="1" parent="1">
          <mxGeometry x="-558" y="442" width="120" height="80" as="geometry" />
        </mxCell>
        <mxCell id="TKUN_kZqoWUepgemo68u-5" value="" style="edgeStyle=orthogonalEdgeStyle;rounded=0;orthogonalLoop=1;jettySize=auto;html=1;exitX=0.5;exitY=1;exitDx=0;exitDy=0;entryX=0.5;entryY=0;entryDx=0;entryDy=0;entryPerimeter=0;fillColor=#d80073;strokeColor=#A50040;" edge="1" parent="1" source="FbaqpglJVMi_n5HGXFX3-4" target="FbaqpglJVMi_n5HGXFX3-8">
          <mxGeometry relative="1" as="geometry">
            <mxPoint x="-920" y="320" as="sourcePoint" />
            <mxPoint x="-880" y="320" as="targetPoint" />
          </mxGeometry>
        </mxCell>
        <mxCell id="TKUN_kZqoWUepgemo68u-9" value="QG2" style="strokeWidth=2;html=1;shape=mxgraph.flowchart.decision;whiteSpace=wrap;fillColor=#ffff88;strokeColor=#36393d;" vertex="1" parent="1">
          <mxGeometry x="-759" y="304" width="40" height="40" as="geometry" />
        </mxCell>
        <mxCell id="TKUN_kZqoWUepgemo68u-10" value="" style="endArrow=classic;html=1;rounded=0;entryX=0;entryY=0.5;entryDx=0;entryDy=0;exitX=0.5;exitY=1;exitDx=0;exitDy=0;exitPerimeter=0;fillColor=#d80073;strokeColor=#A50040;" edge="1" parent="1" source="TKUN_kZqoWUepgemo68u-9">
          <mxGeometry width="50" height="50" relative="1" as="geometry">
            <mxPoint x="-869" y="451" as="sourcePoint" />
            <mxPoint x="-679" y="361" as="targetPoint" />
            <Array as="points">
              <mxPoint x="-739" y="361" />
            </Array>
          </mxGeometry>
        </mxCell>
        <mxCell id="TKUN_kZqoWUepgemo68u-11" value="" style="edgeStyle=orthogonalEdgeStyle;rounded=0;orthogonalLoop=1;jettySize=auto;html=1;exitX=0.5;exitY=1;exitDx=0;exitDy=0;entryX=0.5;entryY=0;entryDx=0;entryDy=0;entryPerimeter=0;fillColor=#d80073;strokeColor=#A50040;" edge="1" parent="1" target="TKUN_kZqoWUepgemo68u-9">
          <mxGeometry relative="1" as="geometry">
            <mxPoint x="-739" y="281" as="sourcePoint" />
            <mxPoint x="-759" y="441" as="targetPoint" />
          </mxGeometry>
        </mxCell>
        <mxCell id="TKUN_kZqoWUepgemo68u-12" value="QG3" style="strokeWidth=2;html=1;shape=mxgraph.flowchart.decision;whiteSpace=wrap;fillColor=#ffff88;strokeColor=#36393d;" vertex="1" parent="1">
          <mxGeometry x="-638" y="424" width="40" height="40" as="geometry" />
        </mxCell>
        <mxCell id="TKUN_kZqoWUepgemo68u-13" value="" style="endArrow=classic;html=1;rounded=0;entryX=0;entryY=0.5;entryDx=0;entryDy=0;exitX=0.5;exitY=1;exitDx=0;exitDy=0;exitPerimeter=0;fillColor=#d80073;strokeColor=#A50040;" edge="1" parent="1" source="TKUN_kZqoWUepgemo68u-12">
          <mxGeometry width="50" height="50" relative="1" as="geometry">
            <mxPoint x="-748" y="571" as="sourcePoint" />
            <mxPoint x="-558" y="481" as="targetPoint" />
            <Array as="points">
              <mxPoint x="-618" y="481" />
            </Array>
          </mxGeometry>
        </mxCell>
        <mxCell id="TKUN_kZqoWUepgemo68u-14" value="" style="edgeStyle=orthogonalEdgeStyle;rounded=0;orthogonalLoop=1;jettySize=auto;html=1;exitX=0.5;exitY=1;exitDx=0;exitDy=0;entryX=0.5;entryY=0;entryDx=0;entryDy=0;entryPerimeter=0;fillColor=#d80073;strokeColor=#A50040;" edge="1" parent="1" target="TKUN_kZqoWUepgemo68u-12">
          <mxGeometry relative="1" as="geometry">
            <mxPoint x="-618" y="401" as="sourcePoint" />
            <mxPoint x="-638" y="561" as="targetPoint" />
          </mxGeometry>
        </mxCell>
        <mxCell id="TKUN_kZqoWUepgemo68u-19" value="QGn: Quality Gate {1, ..., 5}" style="text;strokeColor=none;align=left;fillColor=none;html=1;verticalAlign=middle;whiteSpace=wrap;rounded=0;" vertex="1" parent="1">
          <mxGeometry x="-1040" y="604" width="180" height="30" as="geometry" />
        </mxCell>
        <mxCell id="TKUN_kZqoWUepgemo68u-20" value="1.5&lt;div&gt;Salida en vivo y soporte&lt;div&gt;t=3 sem&lt;/div&gt;&lt;/div&gt;" style="rounded=1;whiteSpace=wrap;html=1;absoluteArcSize=1;arcSize=14;strokeWidth=2;align=center;verticalAlign=top;fillColor=#dae8fc;strokeColor=#6c8ebf;" vertex="1" parent="1">
          <mxGeometry x="-438" y="563" width="120" height="80" as="geometry" />
        </mxCell>
        <mxCell id="TKUN_kZqoWUepgemo68u-21" value="QG4" style="strokeWidth=2;html=1;shape=mxgraph.flowchart.decision;whiteSpace=wrap;fillColor=#ffff88;strokeColor=#36393d;" vertex="1" parent="1">
          <mxGeometry x="-518" y="545" width="40" height="40" as="geometry" />
        </mxCell>
        <mxCell id="TKUN_kZqoWUepgemo68u-22" value="" style="endArrow=classic;html=1;rounded=0;entryX=0;entryY=0.5;entryDx=0;entryDy=0;exitX=0.5;exitY=1;exitDx=0;exitDy=0;exitPerimeter=0;fillColor=#d80073;strokeColor=#A50040;" edge="1" parent="1" source="TKUN_kZqoWUepgemo68u-21">
          <mxGeometry width="50" height="50" relative="1" as="geometry">
            <mxPoint x="-628" y="692" as="sourcePoint" />
            <mxPoint x="-438" y="602" as="targetPoint" />
            <Array as="points">
              <mxPoint x="-498" y="602" />
            </Array>
          </mxGeometry>
        </mxCell>
        <mxCell id="TKUN_kZqoWUepgemo68u-23" value="" style="edgeStyle=orthogonalEdgeStyle;rounded=0;orthogonalLoop=1;jettySize=auto;html=1;exitX=0.5;exitY=1;exitDx=0;exitDy=0;entryX=0.5;entryY=0;entryDx=0;entryDy=0;entryPerimeter=0;fillColor=#d80073;strokeColor=#A50040;" edge="1" parent="1" target="TKUN_kZqoWUepgemo68u-21">
          <mxGeometry relative="1" as="geometry">
            <mxPoint x="-498" y="522" as="sourcePoint" />
            <mxPoint x="-518" y="682" as="targetPoint" />
          </mxGeometry>
        </mxCell>
        <mxCell id="TKUN_kZqoWUepgemo68u-24" value="QG5&lt;div&gt;CP&lt;/div&gt;" style="strokeWidth=2;html=1;shape=mxgraph.flowchart.decision;whiteSpace=wrap;fillColor=#ffff88;strokeColor=#36393d;" vertex="1" parent="1">
          <mxGeometry x="-400" y="661" width="40" height="40" as="geometry" />
        </mxCell>
        <mxCell id="TKUN_kZqoWUepgemo68u-25" value="" style="edgeStyle=orthogonalEdgeStyle;rounded=0;orthogonalLoop=1;jettySize=auto;html=1;exitX=0.5;exitY=1;exitDx=0;exitDy=0;entryX=0.5;entryY=0;entryDx=0;entryDy=0;entryPerimeter=0;fillColor=#d80073;strokeColor=#A50040;" edge="1" parent="1" source="TKUN_kZqoWUepgemo68u-20" target="TKUN_kZqoWUepgemo68u-24">
          <mxGeometry relative="1" as="geometry">
            <mxPoint x="-291" y="591" as="sourcePoint" />
            <mxPoint x="-291" y="614" as="targetPoint" />
          </mxGeometry>
        </mxCell>
        <mxCell id="TKUN_kZqoWUepgemo68u-26" value="&lt;div&gt;Fin&lt;/div&gt;&lt;div&gt;15/06/2026&lt;/div&gt;" style="strokeWidth=2;html=1;shape=mxgraph.flowchart.start_2;whiteSpace=wrap;fillColor=#d5e8d4;strokeColor=#82b366;gradientColor=#97d077;" vertex="1" parent="1">
          <mxGeometry x="-279" y="641" width="80" height="80" as="geometry" />
        </mxCell>
        <mxCell id="TKUN_kZqoWUepgemo68u-27" value="" style="edgeStyle=orthogonalEdgeStyle;rounded=0;orthogonalLoop=1;jettySize=auto;html=1;exitX=1;exitY=0.5;exitDx=0;exitDy=0;entryX=0;entryY=0.5;entryDx=0;entryDy=0;entryPerimeter=0;exitPerimeter=0;" edge="1" parent="1" source="TKUN_kZqoWUepgemo68u-24" target="TKUN_kZqoWUepgemo68u-26">
          <mxGeometry relative="1" as="geometry">
            <mxPoint x="-355" y="680" as="sourcePoint" />
            <mxPoint x="-316" y="680" as="targetPoint" />
          </mxGeometry>
        </mxCell>
        <mxCell id="TKUN_kZqoWUepgemo68u-28" value="Duración total = 129 d" style="text;strokeColor=none;align=left;fillColor=none;html=1;verticalAlign=middle;whiteSpace=wrap;rounded=0;" vertex="1" parent="1">
          <mxGeometry x="-1040" y="644" width="180" height="30" as="geometry" />
        </mxCell>
        <mxCell id="TKUN_kZqoWUepgemo68u-29" value="Camino crítico = 120 d (24 sem)" style="text;strokeColor=none;align=left;fillColor=none;html=1;verticalAlign=middle;whiteSpace=wrap;rounded=0;" vertex="1" parent="1">
          <mxGeometry x="-1040" y="688" width="180" height="30" as="geometry" />
        </mxCell>
        <mxCell id="TKUN_kZqoWUepgemo68u-30" value="" style="endArrow=none;dashed=1;html=1;rounded=0;" edge="1" parent="1">
          <mxGeometry width="50" height="50" relative="1" as="geometry">
            <mxPoint x="-1060" y="741.3529411764706" as="sourcePoint" />
            <mxPoint x="-1060" y="19" as="targetPoint" />
          </mxGeometry>
        </mxCell>
        <mxCell id="TKUN_kZqoWUepgemo68u-31" value="" style="endArrow=none;dashed=1;html=1;rounded=0;" edge="1" parent="1">
          <mxGeometry width="50" height="50" relative="1" as="geometry">
            <mxPoint x="-180" y="741.3529411764707" as="sourcePoint" />
            <mxPoint x="-180" y="19" as="targetPoint" />
          </mxGeometry>
        </mxCell>
        <mxCell id="TKUN_kZqoWUepgemo68u-32" value="" style="endArrow=none;dashed=1;html=1;rounded=0;" edge="1" parent="1">
          <mxGeometry width="50" height="50" relative="1" as="geometry">
            <mxPoint x="-1060" y="740" as="sourcePoint" />
            <mxPoint x="-180" y="740" as="targetPoint" />
          </mxGeometry>
        </mxCell>
        <mxCell id="TKUN_kZqoWUepgemo68u-33" value="" style="endArrow=none;dashed=1;html=1;rounded=0;" edge="1" parent="1">
          <mxGeometry width="50" height="50" relative="1" as="geometry">
            <mxPoint x="-1059" y="20" as="sourcePoint" />
            <mxPoint x="-179" y="20" as="targetPoint" />
          </mxGeometry>
        </mxCell>
      </root>
    </mxGraphModel>
  </diagram>
</mxfile>
